<svg width="72" height="72" viewBox="0 0 72 72" fill="none" xmlns="http://www.w3.org/2000/svg">
<rect width="72" height="72" rx="10" fill="#F5F6F7"/>
<path fill-rule="evenodd" clip-rule="evenodd" d="M26.6301 23.2626C25.0842 23.2626 23.831 24.5158 23.831 26.0618V42.3375L26.1236 40.0464V43.4547L23.4796 46.082C23.1365 46.4251 22.6205 46.5278 22.1722 46.3421C21.7239 46.1564 21.4316 45.7189 21.4316 45.2337V26.0618C21.4316 23.1907 23.7591 20.8633 26.6301 20.8633H40.4199C43.291 20.8633 45.6184 23.1907 45.6184 26.0618V26.5588H43.2191V26.0618C43.2191 24.5158 41.9659 23.2626 40.4199 23.2626H26.6301Z" fill="#192A36" stroke="#192A36" stroke-width="0.5" stroke-linejoin="round"/>
<path d="M50.5683 34.0864V51.1369L47.2399 48.7574H33.5195C30.7581 48.7574 28.5195 46.5188 28.5195 43.7574V34.0864C28.5195 31.325 30.7581 29.0864 33.5195 29.0864H45.5683C48.3298 29.0864 50.5683 31.325 50.5683 34.0864Z" fill="#192A36"/>
<path d="M32.1377 34.6484H47.2069" stroke="#15D36E" stroke-width="2.5" stroke-linejoin="round"/>
<path d="M32.1377 38.6484H47.2069" stroke="#15D36E" stroke-width="2.5" stroke-linejoin="round"/>
<path d="M32.1377 42.6484H41.8103" stroke="#15D36E" stroke-width="2.5" stroke-linejoin="round"/>
</svg>
