<svg width="72" height="72" viewBox="0 0 72 72" fill="none" xmlns="http://www.w3.org/2000/svg">
<rect width="72" height="72" rx="10" fill="#F5F6F7"/>
<path d="M57.7988 44.3823H14.1699L14.7863 51.2018L30.1503 52.2164L56.6428 51.2018L57.7988 44.3823Z" fill="#0490E9"/>
<path d="M13.334 25.7837C13.334 22.47 16.0203 19.7837 19.334 19.7837H52.6663C55.98 19.7837 58.6663 22.47 58.6663 25.7837V45.321C58.6663 48.6347 55.98 51.321 52.6663 51.321H19.334C16.0203 51.321 13.334 48.6347 13.334 45.321V25.7837Z" stroke="#192A36" stroke-width="3"/>
<rect x="13.334" y="19.7837" width="45.3323" height="25.0486" rx="6" stroke="#192A36" stroke-width="3"/>
<path d="M20.3381 39.2461L23.8301 29.3641H18.8441V25.8721H27.5021L28.3481 27.2761L24.2261 39.2461H20.3381Z" fill="#192A36"/>
<path d="M36.404 39.3541C35.444 39.3541 34.514 39.3121 33.614 39.2281C32.714 39.1441 31.88 39.0241 31.112 38.8681V36.0601H35.036C35.504 36.0601 35.864 36.0361 36.116 35.9881C36.38 35.9401 36.56 35.8621 36.656 35.7541C36.752 35.6461 36.8 35.4961 36.8 35.3041V34.9621C36.8 34.7461 36.746 34.5721 36.638 34.4401C36.53 34.3081 36.374 34.2121 36.17 34.1521C35.966 34.0801 35.714 34.0381 35.414 34.0261L32.21 33.8821V31.1821L35.252 30.9841C35.732 30.9481 36.086 30.8761 36.314 30.7681C36.542 30.6601 36.656 30.4681 36.656 30.1921V30.0301C36.656 29.6821 36.536 29.4361 36.296 29.2921C36.056 29.1481 35.612 29.0761 34.964 29.0761H31.292V26.2681C32.072 26.1361 32.894 26.0161 33.758 25.9081C34.622 25.7881 35.498 25.7401 36.386 25.7641C37.154 25.7761 37.814 25.9081 38.366 26.1601C38.93 26.4001 39.362 26.7721 39.662 27.2761C39.962 27.7681 40.112 28.3981 40.112 29.1661V30.0661C40.112 30.3661 40.082 30.6481 40.022 30.9121C39.974 31.1641 39.89 31.3981 39.77 31.6141C39.65 31.8181 39.494 31.9981 39.302 32.1541C39.11 32.3101 38.876 32.4361 38.6 32.5321C38.888 32.6161 39.134 32.7541 39.338 32.9461C39.554 33.1261 39.728 33.3421 39.86 33.5941C40.004 33.8461 40.112 34.1341 40.184 34.4581C40.256 34.7701 40.292 35.1061 40.292 35.4661V35.9881C40.292 37.0801 39.944 37.9141 39.248 38.4901C38.564 39.0661 37.616 39.3541 36.404 39.3541Z" fill="#192A36"/>
<g clip-path="url(#clip0_1004_917)">
<path d="M48.1564 30.3541C47.7004 30.3541 47.2504 30.3181 46.8064 30.2461C46.3624 30.1621 45.9604 30.0121 45.6004 29.7961C45.2524 29.5801 44.9704 29.2741 44.7544 28.8781C44.5504 28.4701 44.4484 27.9361 44.4484 27.2761V25.4941C44.4484 25.2061 44.4904 24.9181 44.5744 24.6301C44.6584 24.3421 44.7964 24.0841 44.9884 23.8561C45.1804 23.6281 45.4444 23.4781 45.7804 23.4061C45.4204 23.2141 45.1624 22.9981 45.0064 22.7581C44.8624 22.5181 44.7784 22.2541 44.7544 21.9661C44.7304 21.6781 44.7184 21.3781 44.7184 21.0661V19.5541C44.7184 18.8701 44.8684 18.3241 45.1684 17.9161C45.4804 17.5081 45.8824 17.2141 46.3744 17.0341C46.8784 16.8541 47.4124 16.7641 47.9764 16.7641H50.5324C51.1084 16.7641 51.6424 16.8541 52.1344 17.0341C52.6264 17.2141 53.0224 17.5081 53.3224 17.9161C53.6344 18.3241 53.7904 18.8701 53.7904 19.5541V21.0661C53.7904 21.1861 53.7784 21.3541 53.7544 21.5701C53.7304 21.7861 53.6824 22.0141 53.6104 22.2541C53.5384 22.4821 53.4304 22.6801 53.2864 22.8481C53.1424 23.0161 52.9504 23.1181 52.7104 23.1541C53.1304 23.2501 53.4304 23.4481 53.6104 23.7481C53.8024 24.0361 53.9224 24.3421 53.9704 24.6661C54.0304 24.9901 54.0604 25.2661 54.0604 25.4941V27.2761C54.0604 28.1521 53.8984 28.8121 53.5744 29.2561C53.2504 29.6881 52.8244 29.9821 52.2964 30.1381C51.7684 30.2821 51.1984 30.3541 50.5864 30.3541H48.1564ZM48.7864 27.4021H49.7224C50.1184 27.4021 50.3584 27.3301 50.4424 27.1861C50.5264 27.0301 50.5684 26.8261 50.5684 26.5741V25.7281C50.5684 25.4881 50.4964 25.2901 50.3524 25.1341C50.2204 24.9661 50.0224 24.8821 49.7584 24.8821H48.7864C48.6424 24.8821 48.5164 24.9061 48.4084 24.9541C48.3004 24.9901 48.2104 25.0501 48.1384 25.1341C48.0784 25.2061 48.0304 25.2961 47.9944 25.4041C47.9584 25.5001 47.9404 25.6081 47.9404 25.7281V26.5741C47.9404 26.8861 48.0004 27.1021 48.1204 27.2221C48.2524 27.3421 48.4744 27.4021 48.7864 27.4021ZM48.7864 21.9301H49.7224C49.9384 21.9301 50.0884 21.9001 50.1724 21.8401C50.2684 21.7681 50.3284 21.6601 50.3524 21.5161C50.3764 21.3721 50.3884 21.1921 50.3884 20.9761V20.4181C50.3884 20.0701 50.3164 19.8661 50.1724 19.8061C50.0404 19.7461 49.8904 19.7161 49.7224 19.7161H48.7864C48.5704 19.7161 48.4024 19.7521 48.2824 19.8241C48.1744 19.8841 48.1204 20.0821 48.1204 20.4181V20.9761C48.1204 21.4081 48.1684 21.6781 48.2644 21.7861C48.3724 21.8821 48.5464 21.9301 48.7864 21.9301Z" fill="#192A36"/>
<path d="M48.5524 46.5421C47.9164 46.5421 47.3044 46.5121 46.7164 46.4521C46.1284 46.3921 45.5884 46.3021 45.0964 46.1821V43.4101H48.1384C48.9544 43.4101 49.5184 43.2061 49.8304 42.7981C50.1544 42.3901 50.3164 41.8141 50.3164 41.0701C50.1004 41.1661 49.8784 41.2441 49.6504 41.3041C49.4224 41.3641 49.1584 41.4061 48.8584 41.4301C48.5584 41.4421 48.1864 41.4481 47.7424 41.4481C46.8064 41.4481 46.0924 41.3041 45.6004 41.0161C45.1084 40.7281 44.7664 40.3381 44.5744 39.8461C44.3944 39.3541 44.3044 38.8081 44.3044 38.2081V36.2641C44.3044 35.4841 44.4424 34.8541 44.7184 34.3741C45.0064 33.8821 45.4084 33.5221 45.9244 33.2941C46.4404 33.0661 47.0464 32.9521 47.7424 32.9521H49.5964C50.3044 32.9521 50.9224 33.0541 51.4504 33.2581C51.9784 33.4501 52.4164 33.7861 52.7644 34.2661C53.1124 34.7461 53.3704 35.4121 53.5384 36.2641C53.7184 37.1041 53.8084 38.1661 53.8084 39.4501C53.8084 40.8301 53.6884 41.9821 53.4484 42.9061C53.2204 43.8181 52.8784 44.5441 52.4224 45.0841C51.9664 45.6121 51.4144 45.9901 50.7664 46.2181C50.1184 46.4341 49.3804 46.5421 48.5524 46.5421ZM48.7684 38.4961H50.3164C50.3164 38.0161 50.2924 37.6201 50.2444 37.3081C50.1964 36.9961 50.1124 36.7501 49.9924 36.5701C49.8844 36.3901 49.7404 36.2641 49.5604 36.1921C49.3804 36.1201 49.1524 36.0841 48.8764 36.0841H48.5704C48.3784 36.0841 48.2224 36.1201 48.1024 36.1921C47.9944 36.2641 47.9164 36.3661 47.8684 36.4981C47.8204 36.6301 47.7964 36.7981 47.7964 37.0021V37.5061C47.7964 37.7581 47.8204 37.9561 47.8684 38.1001C47.9284 38.2441 48.0304 38.3461 48.1744 38.4061C48.3184 38.4661 48.5164 38.4961 48.7684 38.4961Z" fill="#192A36"/>
</g>
<defs>
<clipPath id="clip0_1004_917">
<rect width="10" height="24" fill="white" transform="translate(44 20)"/>
</clipPath>
</defs>
</svg>
