<svg width="72" height="72" viewBox="0 0 72 72" fill="none" xmlns="http://www.w3.org/2000/svg">
<rect width="72" height="72" rx="10" fill="#F5F6F7"/>
<rect x="19.1748" y="19.1646" width="34.1099" height="5.70587" fill="#0490E9"/>
<rect x="19.1748" y="47.2256" width="34.1099" height="5.60968" fill="#0490E9"/>
<path d="M21.1943 46.335H51.3722" stroke="#192A36" stroke-width="3"/>
<path d="M21.1943 25.6143H51.3722" stroke="#192A36" stroke-width="3"/>
<path d="M17.999 19.1646V17.6646H16.499V19.1646H17.999ZM53.9997 19.1646H55.4997V17.6646H53.9997V19.1646ZM17.999 23.1515H16.499V24.6515H17.999V23.1515ZM17.999 28.3955V26.8955H16.499V28.3955H17.999ZM17.999 43.6045H16.499V45.1045H17.999V43.6045ZM17.999 48.8485V47.3485H16.499V48.8485H17.999ZM17.999 52.8354H16.499V54.3354H17.999V52.8354ZM53.9997 52.8354V54.3354H55.4997V52.8354H53.9997ZM53.9997 48.8485H55.4997V47.3485H53.9997V48.8485ZM53.9997 43.6045V45.1045H55.4997V43.6045H53.9997ZM53.9997 28.3955H55.4997V26.8955H53.9997V28.3955ZM53.9997 23.1515V24.6515H55.4997V23.1515H53.9997ZM17.999 20.6646H53.9997V17.6646H17.999V20.6646ZM19.499 23.1515V19.1646H16.499V23.1515H19.499ZM17.999 24.6515C18.6187 24.6515 19.121 25.1538 19.121 25.7735H22.121C22.121 23.4969 20.2755 21.6515 17.999 21.6515V24.6515ZM19.121 25.7735C19.121 26.3931 18.6187 26.8955 17.999 26.8955V29.8955C20.2755 29.8955 22.121 28.05 22.121 25.7735H19.121ZM19.499 43.6045V28.3955H16.499V43.6045H19.499ZM17.999 45.1045C18.6187 45.1045 19.121 45.6069 19.121 46.2265H22.121C22.121 43.95 20.2755 42.1045 17.999 42.1045V45.1045ZM19.121 46.2265C19.121 46.8462 18.6187 47.3485 17.999 47.3485V50.3485C20.2755 50.3485 22.121 48.5031 22.121 46.2265H19.121ZM19.499 52.8354V48.8485H16.499V52.8354H19.499ZM53.9997 51.3354H17.999V54.3354H53.9997V51.3354ZM52.4997 48.8485V52.8354H55.4997V48.8485H52.4997ZM53.9997 47.3485C53.9997 47.3485 53.9997 47.3485 53.9997 47.3485C53.9997 47.3485 53.9997 47.3485 53.9997 47.3485C53.9997 47.3485 53.9997 47.3485 53.9997 47.3485C53.9997 47.3485 53.9997 47.3485 53.9997 47.3485H53.9997C53.9997 47.3485 53.9997 47.3485 53.9997 47.3485H53.9997C53.9997 47.3485 53.9997 47.3485 53.9997 47.3485H53.9997C53.9997 47.3485 53.9997 47.3485 53.9997 47.3485H53.9997C53.9997 47.3485 53.9997 47.3485 53.9997 47.3485H53.9997C53.9997 47.3485 53.9997 47.3485 53.9997 47.3485C53.9997 47.3485 53.9997 47.3485 53.9997 47.3485C53.9997 47.3485 53.9997 47.3485 53.9997 47.3485C53.9997 47.3485 53.9997 47.3485 53.9997 47.3485H53.9997C53.9997 47.3485 53.9997 47.3485 53.9997 47.3485H53.9997C53.9997 47.3485 53.9997 47.3485 53.9997 47.3485H53.9997C53.9997 47.3485 53.9997 47.3485 53.9997 47.3485H53.9997C53.9996 47.3485 53.9996 47.3485 53.9996 47.3485H53.9996C53.9996 47.3485 53.9996 47.3485 53.9996 47.3485C53.9996 47.3485 53.9996 47.3485 53.9996 47.3485C53.9996 47.3485 53.9996 47.3485 53.9996 47.3485C53.9996 47.3485 53.9996 47.3485 53.9996 47.3485C53.9996 47.3485 53.9996 47.3485 53.9996 47.3485C53.9996 47.3485 53.9996 47.3485 53.9996 47.3485C53.9996 47.3485 53.9996 47.3485 53.9996 47.3485C53.9996 47.3485 53.9996 47.3485 53.9996 47.3485H53.9996C53.9996 47.3485 53.9996 47.3485 53.9996 47.3485H53.9996C53.9996 47.3485 53.9996 47.3485 53.9996 47.3485H53.9996C53.9996 47.3485 53.9996 47.3485 53.9996 47.3485H53.9996C53.9996 47.3485 53.9996 47.3485 53.9996 47.3485H53.9996C53.9996 47.3485 53.9996 47.3485 53.9996 47.3485C53.9996 47.3485 53.9996 47.3485 53.9996 47.3485C53.9996 47.3485 53.9996 47.3485 53.9996 47.3485C53.9996 47.3485 53.9996 47.3485 53.9996 47.3485H53.9996C53.9996 47.3485 53.9996 47.3485 53.9996 47.3485H53.9996C53.9996 47.3485 53.9996 47.3485 53.9995 47.3485H53.9995C53.9995 47.3485 53.9995 47.3485 53.9995 47.3485H53.9995C53.9995 47.3485 53.9995 47.3485 53.9995 47.3485H53.9995C53.9995 47.3485 53.9995 47.3485 53.9995 47.3485C53.9995 47.3485 53.9995 47.3485 53.9995 47.3485C53.9995 47.3485 53.9995 47.3485 53.9995 47.3485C53.9995 47.3485 53.9995 47.3485 53.9995 47.3485V50.3485C53.9995 50.3485 53.9995 50.3485 53.9995 50.3485C53.9995 50.3485 53.9995 50.3485 53.9995 50.3485C53.9995 50.3485 53.9995 50.3485 53.9995 50.3485C53.9995 50.3485 53.9995 50.3485 53.9995 50.3485H53.9995C53.9995 50.3485 53.9995 50.3485 53.9995 50.3485H53.9995C53.9995 50.3485 53.9995 50.3485 53.9995 50.3485H53.9995C53.9996 50.3485 53.9996 50.3485 53.9996 50.3485H53.9996C53.9996 50.3485 53.9996 50.3485 53.9996 50.3485H53.9996C53.9996 50.3485 53.9996 50.3485 53.9996 50.3485C53.9996 50.3485 53.9996 50.3485 53.9996 50.3485C53.9996 50.3485 53.9996 50.3485 53.9996 50.3485C53.9996 50.3485 53.9996 50.3485 53.9996 50.3485H53.9996C53.9996 50.3485 53.9996 50.3485 53.9996 50.3485H53.9996C53.9996 50.3485 53.9996 50.3485 53.9996 50.3485H53.9996C53.9996 50.3485 53.9996 50.3485 53.9996 50.3485H53.9996C53.9996 50.3485 53.9996 50.3485 53.9996 50.3485H53.9996C53.9996 50.3485 53.9996 50.3485 53.9996 50.3485C53.9996 50.3485 53.9996 50.3485 53.9996 50.3485C53.9996 50.3485 53.9996 50.3485 53.9996 50.3485C53.9996 50.3485 53.9996 50.3485 53.9996 50.3485C53.9996 50.3485 53.9996 50.3485 53.9996 50.3485C53.9996 50.3485 53.9996 50.3485 53.9996 50.3485C53.9996 50.3485 53.9996 50.3485 53.9996 50.3485C53.9996 50.3485 53.9996 50.3485 53.9996 50.3485H53.9996C53.9996 50.3485 53.9996 50.3485 53.9997 50.3485H53.9997C53.9997 50.3485 53.9997 50.3485 53.9997 50.3485H53.9997C53.9997 50.3485 53.9997 50.3485 53.9997 50.3485H53.9997C53.9997 50.3485 53.9997 50.3485 53.9997 50.3485H53.9997C53.9997 50.3485 53.9997 50.3485 53.9997 50.3485C53.9997 50.3485 53.9997 50.3485 53.9997 50.3485C53.9997 50.3485 53.9997 50.3485 53.9997 50.3485C53.9997 50.3485 53.9997 50.3485 53.9997 50.3485H53.9997C53.9997 50.3485 53.9997 50.3485 53.9997 50.3485H53.9997C53.9997 50.3485 53.9997 50.3485 53.9997 50.3485H53.9997C53.9997 50.3485 53.9997 50.3485 53.9997 50.3485H53.9997C53.9997 50.3485 53.9997 50.3485 53.9997 50.3485H53.9997C53.9997 50.3485 53.9997 50.3485 53.9997 50.3485C53.9997 50.3485 53.9997 50.3485 53.9997 50.3485C53.9997 50.3485 53.9997 50.3485 53.9997 50.3485C53.9997 50.3485 53.9997 50.3485 53.9997 50.3485V47.3485ZM53.9995 47.3485C53.3798 47.3485 52.8775 46.8462 52.8775 46.2265H49.8775C49.8775 48.5031 51.723 50.3485 53.9995 50.3485V47.3485ZM52.8775 46.2265C52.8775 45.6069 53.3798 45.1045 53.9995 45.1045V42.1045C51.723 42.1045 49.8775 43.95 49.8775 46.2265H52.8775ZM53.9995 45.1045C53.9995 45.1045 53.9995 45.1045 53.9995 45.1045C53.9995 45.1045 53.9995 45.1045 53.9995 45.1045C53.9995 45.1045 53.9995 45.1045 53.9995 45.1045C53.9995 45.1045 53.9995 45.1045 53.9995 45.1045H53.9995C53.9995 45.1045 53.9995 45.1045 53.9995 45.1045H53.9995C53.9995 45.1045 53.9995 45.1045 53.9995 45.1045H53.9995C53.9996 45.1045 53.9996 45.1045 53.9996 45.1045H53.9996C53.9996 45.1045 53.9996 45.1045 53.9996 45.1045H53.9996C53.9996 45.1045 53.9996 45.1045 53.9996 45.1045C53.9996 45.1045 53.9996 45.1045 53.9996 45.1045C53.9996 45.1045 53.9996 45.1045 53.9996 45.1045C53.9996 45.1045 53.9996 45.1045 53.9996 45.1045H53.9996C53.9996 45.1045 53.9996 45.1045 53.9996 45.1045H53.9996C53.9996 45.1045 53.9996 45.1045 53.9996 45.1045H53.9996C53.9996 45.1045 53.9996 45.1045 53.9996 45.1045H53.9996C53.9996 45.1045 53.9996 45.1045 53.9996 45.1045H53.9996C53.9996 45.1045 53.9996 45.1045 53.9996 45.1045C53.9996 45.1045 53.9996 45.1045 53.9996 45.1045C53.9996 45.1045 53.9996 45.1045 53.9996 45.1045C53.9996 45.1045 53.9996 45.1045 53.9996 45.1045C53.9996 45.1045 53.9996 45.1045 53.9996 45.1045C53.9996 45.1045 53.9996 45.1045 53.9996 45.1045C53.9996 45.1045 53.9996 45.1045 53.9996 45.1045C53.9996 45.1045 53.9996 45.1045 53.9996 45.1045H53.9996C53.9996 45.1045 53.9996 45.1045 53.9997 45.1045H53.9997C53.9997 45.1045 53.9997 45.1045 53.9997 45.1045H53.9997C53.9997 45.1045 53.9997 45.1045 53.9997 45.1045H53.9997C53.9997 45.1045 53.9997 45.1045 53.9997 45.1045H53.9997C53.9997 45.1045 53.9997 45.1045 53.9997 45.1045C53.9997 45.1045 53.9997 45.1045 53.9997 45.1045C53.9997 45.1045 53.9997 45.1045 53.9997 45.1045C53.9997 45.1045 53.9997 45.1045 53.9997 45.1045H53.9997C53.9997 45.1045 53.9997 45.1045 53.9997 45.1045H53.9997C53.9997 45.1045 53.9997 45.1045 53.9997 45.1045H53.9997C53.9997 45.1045 53.9997 45.1045 53.9997 45.1045H53.9997C53.9997 45.1045 53.9997 45.1045 53.9997 45.1045H53.9997C53.9997 45.1045 53.9997 45.1045 53.9997 45.1045C53.9997 45.1045 53.9997 45.1045 53.9997 45.1045C53.9997 45.1045 53.9997 45.1045 53.9997 45.1045C53.9997 45.1045 53.9997 45.1045 53.9997 45.1045V42.1045C53.9997 42.1045 53.9997 42.1045 53.9997 42.1045C53.9997 42.1045 53.9997 42.1045 53.9997 42.1045C53.9997 42.1045 53.9997 42.1045 53.9997 42.1045C53.9997 42.1045 53.9997 42.1045 53.9997 42.1045H53.9997C53.9997 42.1045 53.9997 42.1045 53.9997 42.1045H53.9997C53.9997 42.1045 53.9997 42.1045 53.9997 42.1045H53.9997C53.9997 42.1045 53.9997 42.1045 53.9997 42.1045H53.9997C53.9997 42.1045 53.9997 42.1045 53.9997 42.1045H53.9997C53.9997 42.1045 53.9997 42.1045 53.9997 42.1045C53.9997 42.1045 53.9997 42.1045 53.9997 42.1045C53.9997 42.1045 53.9997 42.1045 53.9997 42.1045C53.9997 42.1045 53.9997 42.1045 53.9997 42.1045H53.9997C53.9997 42.1045 53.9997 42.1045 53.9997 42.1045H53.9997C53.9997 42.1045 53.9997 42.1045 53.9997 42.1045H53.9997C53.9997 42.1045 53.9997 42.1045 53.9997 42.1045H53.9997C53.9996 42.1045 53.9996 42.1045 53.9996 42.1045H53.9996C53.9996 42.1045 53.9996 42.1045 53.9996 42.1045C53.9996 42.1045 53.9996 42.1045 53.9996 42.1045C53.9996 42.1045 53.9996 42.1045 53.9996 42.1045C53.9996 42.1045 53.9996 42.1045 53.9996 42.1045C53.9996 42.1045 53.9996 42.1045 53.9996 42.1045C53.9996 42.1045 53.9996 42.1045 53.9996 42.1045C53.9996 42.1045 53.9996 42.1045 53.9996 42.1045C53.9996 42.1045 53.9996 42.1045 53.9996 42.1045H53.9996C53.9996 42.1045 53.9996 42.1045 53.9996 42.1045H53.9996C53.9996 42.1045 53.9996 42.1045 53.9996 42.1045H53.9996C53.9996 42.1045 53.9996 42.1045 53.9996 42.1045H53.9996C53.9996 42.1045 53.9996 42.1045 53.9996 42.1045H53.9996C53.9996 42.1045 53.9996 42.1045 53.9996 42.1045C53.9996 42.1045 53.9996 42.1045 53.9996 42.1045C53.9996 42.1045 53.9996 42.1045 53.9996 42.1045C53.9996 42.1045 53.9996 42.1045 53.9996 42.1045H53.9996C53.9996 42.1045 53.9996 42.1045 53.9996 42.1045H53.9996C53.9996 42.1045 53.9996 42.1045 53.9995 42.1045H53.9995C53.9995 42.1045 53.9995 42.1045 53.9995 42.1045H53.9995C53.9995 42.1045 53.9995 42.1045 53.9995 42.1045H53.9995C53.9995 42.1045 53.9995 42.1045 53.9995 42.1045C53.9995 42.1045 53.9995 42.1045 53.9995 42.1045C53.9995 42.1045 53.9995 42.1045 53.9995 42.1045C53.9995 42.1045 53.9995 42.1045 53.9995 42.1045V45.1045ZM52.4997 28.3955V43.6045H55.4997V28.3955H52.4997ZM53.9995 29.8955C53.9995 29.8955 53.9995 29.8955 53.9995 29.8955C53.9995 29.8955 53.9995 29.8955 53.9995 29.8955C53.9995 29.8955 53.9995 29.8955 53.9995 29.8955C53.9995 29.8955 53.9995 29.8955 53.9995 29.8955H53.9995C53.9995 29.8955 53.9995 29.8955 53.9995 29.8955H53.9995C53.9995 29.8955 53.9995 29.8955 53.9995 29.8955H53.9995C53.9996 29.8955 53.9996 29.8955 53.9996 29.8955H53.9996C53.9996 29.8955 53.9996 29.8955 53.9996 29.8955H53.9996C53.9996 29.8955 53.9996 29.8955 53.9996 29.8955C53.9996 29.8955 53.9996 29.8955 53.9996 29.8955C53.9996 29.8955 53.9996 29.8955 53.9996 29.8955C53.9996 29.8955 53.9996 29.8955 53.9996 29.8955H53.9996C53.9996 29.8955 53.9996 29.8955 53.9996 29.8955H53.9996C53.9996 29.8955 53.9996 29.8955 53.9996 29.8955H53.9996C53.9996 29.8955 53.9996 29.8955 53.9996 29.8955H53.9996C53.9996 29.8955 53.9996 29.8955 53.9996 29.8955H53.9996C53.9996 29.8955 53.9996 29.8955 53.9996 29.8955C53.9996 29.8955 53.9996 29.8955 53.9996 29.8955C53.9996 29.8955 53.9996 29.8955 53.9996 29.8955C53.9996 29.8955 53.9996 29.8955 53.9996 29.8955C53.9996 29.8955 53.9996 29.8955 53.9996 29.8955C53.9996 29.8955 53.9996 29.8955 53.9996 29.8955C53.9996 29.8955 53.9996 29.8955 53.9996 29.8955C53.9996 29.8955 53.9996 29.8955 53.9996 29.8955H53.9996C53.9996 29.8955 53.9996 29.8955 53.9997 29.8955H53.9997C53.9997 29.8955 53.9997 29.8955 53.9997 29.8955H53.9997C53.9997 29.8955 53.9997 29.8955 53.9997 29.8955H53.9997C53.9997 29.8955 53.9997 29.8955 53.9997 29.8955H53.9997C53.9997 29.8955 53.9997 29.8955 53.9997 29.8955C53.9997 29.8955 53.9997 29.8955 53.9997 29.8955C53.9997 29.8955 53.9997 29.8955 53.9997 29.8955C53.9997 29.8955 53.9997 29.8955 53.9997 29.8955H53.9997C53.9997 29.8955 53.9997 29.8955 53.9997 29.8955H53.9997C53.9997 29.8955 53.9997 29.8955 53.9997 29.8955H53.9997C53.9997 29.8955 53.9997 29.8955 53.9997 29.8955H53.9997C53.9997 29.8955 53.9997 29.8955 53.9997 29.8955H53.9997C53.9997 29.8955 53.9997 29.8955 53.9997 29.8955C53.9997 29.8955 53.9997 29.8955 53.9997 29.8955C53.9997 29.8955 53.9997 29.8955 53.9997 29.8955C53.9997 29.8955 53.9997 29.8955 53.9997 29.8955V26.8955C53.9997 26.8955 53.9997 26.8955 53.9997 26.8955C53.9997 26.8955 53.9997 26.8955 53.9997 26.8955C53.9997 26.8955 53.9997 26.8955 53.9997 26.8955C53.9997 26.8955 53.9997 26.8955 53.9997 26.8955H53.9997C53.9997 26.8955 53.9997 26.8955 53.9997 26.8955H53.9997C53.9997 26.8955 53.9997 26.8955 53.9997 26.8955H53.9997C53.9997 26.8955 53.9997 26.8955 53.9997 26.8955H53.9997C53.9997 26.8955 53.9997 26.8955 53.9997 26.8955H53.9997C53.9997 26.8955 53.9997 26.8955 53.9997 26.8955C53.9997 26.8955 53.9997 26.8955 53.9997 26.8955C53.9997 26.8955 53.9997 26.8955 53.9997 26.8955C53.9997 26.8955 53.9997 26.8955 53.9997 26.8955H53.9997C53.9997 26.8955 53.9997 26.8955 53.9997 26.8955H53.9997C53.9997 26.8955 53.9997 26.8955 53.9997 26.8955H53.9997C53.9997 26.8955 53.9997 26.8955 53.9997 26.8955H53.9997C53.9996 26.8955 53.9996 26.8955 53.9996 26.8955H53.9996C53.9996 26.8955 53.9996 26.8955 53.9996 26.8955C53.9996 26.8955 53.9996 26.8955 53.9996 26.8955C53.9996 26.8955 53.9996 26.8955 53.9996 26.8955C53.9996 26.8955 53.9996 26.8955 53.9996 26.8955C53.9996 26.8955 53.9996 26.8955 53.9996 26.8955C53.9996 26.8955 53.9996 26.8955 53.9996 26.8955C53.9996 26.8955 53.9996 26.8955 53.9996 26.8955C53.9996 26.8955 53.9996 26.8955 53.9996 26.8955H53.9996C53.9996 26.8955 53.9996 26.8955 53.9996 26.8955H53.9996C53.9996 26.8955 53.9996 26.8955 53.9996 26.8955H53.9996C53.9996 26.8955 53.9996 26.8955 53.9996 26.8955H53.9996C53.9996 26.8955 53.9996 26.8955 53.9996 26.8955H53.9996C53.9996 26.8955 53.9996 26.8955 53.9996 26.8955C53.9996 26.8955 53.9996 26.8955 53.9996 26.8955C53.9996 26.8955 53.9996 26.8955 53.9996 26.8955C53.9996 26.8955 53.9996 26.8955 53.9996 26.8955H53.9996C53.9996 26.8955 53.9996 26.8955 53.9996 26.8955H53.9996C53.9996 26.8955 53.9996 26.8955 53.9995 26.8955H53.9995C53.9995 26.8955 53.9995 26.8955 53.9995 26.8955H53.9995C53.9995 26.8955 53.9995 26.8955 53.9995 26.8955H53.9995C53.9995 26.8955 53.9995 26.8955 53.9995 26.8955C53.9995 26.8955 53.9995 26.8955 53.9995 26.8955C53.9995 26.8955 53.9995 26.8955 53.9995 26.8955C53.9995 26.8955 53.9995 26.8955 53.9995 26.8955V29.8955ZM49.8775 25.7735C49.8775 28.05 51.723 29.8955 53.9995 29.8955V26.8955C53.3798 26.8955 52.8775 26.3931 52.8775 25.7735H49.8775ZM53.9995 21.6515C51.723 21.6515 49.8775 23.4969 49.8775 25.7735H52.8775C52.8775 25.1538 53.3798 24.6515 53.9995 24.6515V21.6515ZM53.9997 21.6515C53.9997 21.6515 53.9997 21.6515 53.9997 21.6515C53.9997 21.6515 53.9997 21.6515 53.9997 21.6515C53.9997 21.6515 53.9997 21.6515 53.9997 21.6515C53.9997 21.6515 53.9997 21.6515 53.9997 21.6515H53.9997C53.9997 21.6515 53.9997 21.6515 53.9997 21.6515H53.9997C53.9997 21.6515 53.9997 21.6515 53.9997 21.6515H53.9997C53.9997 21.6515 53.9997 21.6515 53.9997 21.6515H53.9997C53.9997 21.6515 53.9997 21.6515 53.9997 21.6515H53.9997C53.9997 21.6515 53.9997 21.6515 53.9997 21.6515C53.9997 21.6515 53.9997 21.6515 53.9997 21.6515C53.9997 21.6515 53.9997 21.6515 53.9997 21.6515C53.9997 21.6515 53.9997 21.6515 53.9997 21.6515H53.9997C53.9997 21.6515 53.9997 21.6515 53.9997 21.6515H53.9997C53.9997 21.6515 53.9997 21.6515 53.9997 21.6515H53.9997C53.9997 21.6515 53.9997 21.6515 53.9997 21.6515H53.9997C53.9996 21.6515 53.9996 21.6515 53.9996 21.6515H53.9996C53.9996 21.6515 53.9996 21.6515 53.9996 21.6515C53.9996 21.6515 53.9996 21.6515 53.9996 21.6515C53.9996 21.6515 53.9996 21.6515 53.9996 21.6515C53.9996 21.6515 53.9996 21.6515 53.9996 21.6515C53.9996 21.6515 53.9996 21.6515 53.9996 21.6515C53.9996 21.6515 53.9996 21.6515 53.9996 21.6515C53.9996 21.6515 53.9996 21.6515 53.9996 21.6515C53.9996 21.6515 53.9996 21.6515 53.9996 21.6515H53.9996C53.9996 21.6515 53.9996 21.6515 53.9996 21.6515H53.9996C53.9996 21.6515 53.9996 21.6515 53.9996 21.6515H53.9996C53.9996 21.6515 53.9996 21.6515 53.9996 21.6515H53.9996C53.9996 21.6515 53.9996 21.6515 53.9996 21.6515H53.9996C53.9996 21.6515 53.9996 21.6515 53.9996 21.6515C53.9996 21.6515 53.9996 21.6515 53.9996 21.6515C53.9996 21.6515 53.9996 21.6515 53.9996 21.6515C53.9996 21.6515 53.9996 21.6515 53.9996 21.6515H53.9996C53.9996 21.6515 53.9996 21.6515 53.9996 21.6515H53.9996C53.9996 21.6515 53.9996 21.6515 53.9995 21.6515H53.9995C53.9995 21.6515 53.9995 21.6515 53.9995 21.6515H53.9995C53.9995 21.6515 53.9995 21.6515 53.9995 21.6515H53.9995C53.9995 21.6515 53.9995 21.6515 53.9995 21.6515C53.9995 21.6515 53.9995 21.6515 53.9995 21.6515C53.9995 21.6515 53.9995 21.6515 53.9995 21.6515C53.9995 21.6515 53.9995 21.6515 53.9995 21.6515V24.6515C53.9995 24.6515 53.9995 24.6515 53.9995 24.6515C53.9995 24.6515 53.9995 24.6515 53.9995 24.6515C53.9995 24.6515 53.9995 24.6515 53.9995 24.6515C53.9995 24.6515 53.9995 24.6515 53.9995 24.6515H53.9995C53.9995 24.6515 53.9995 24.6515 53.9995 24.6515H53.9995C53.9995 24.6515 53.9995 24.6515 53.9995 24.6515H53.9995C53.9996 24.6515 53.9996 24.6515 53.9996 24.6515H53.9996C53.9996 24.6515 53.9996 24.6515 53.9996 24.6515H53.9996C53.9996 24.6515 53.9996 24.6515 53.9996 24.6515C53.9996 24.6515 53.9996 24.6515 53.9996 24.6515C53.9996 24.6515 53.9996 24.6515 53.9996 24.6515C53.9996 24.6515 53.9996 24.6515 53.9996 24.6515H53.9996C53.9996 24.6515 53.9996 24.6515 53.9996 24.6515H53.9996C53.9996 24.6515 53.9996 24.6515 53.9996 24.6515H53.9996C53.9996 24.6515 53.9996 24.6515 53.9996 24.6515H53.9996C53.9996 24.6515 53.9996 24.6515 53.9996 24.6515H53.9996C53.9996 24.6515 53.9996 24.6515 53.9996 24.6515C53.9996 24.6515 53.9996 24.6515 53.9996 24.6515C53.9996 24.6515 53.9996 24.6515 53.9996 24.6515C53.9996 24.6515 53.9996 24.6515 53.9996 24.6515C53.9996 24.6515 53.9996 24.6515 53.9996 24.6515C53.9996 24.6515 53.9996 24.6515 53.9996 24.6515C53.9996 24.6515 53.9996 24.6515 53.9996 24.6515C53.9996 24.6515 53.9996 24.6515 53.9996 24.6515H53.9996C53.9996 24.6515 53.9996 24.6515 53.9997 24.6515H53.9997C53.9997 24.6515 53.9997 24.6515 53.9997 24.6515H53.9997C53.9997 24.6515 53.9997 24.6515 53.9997 24.6515H53.9997C53.9997 24.6515 53.9997 24.6515 53.9997 24.6515H53.9997C53.9997 24.6515 53.9997 24.6515 53.9997 24.6515C53.9997 24.6515 53.9997 24.6515 53.9997 24.6515C53.9997 24.6515 53.9997 24.6515 53.9997 24.6515C53.9997 24.6515 53.9997 24.6515 53.9997 24.6515H53.9997C53.9997 24.6515 53.9997 24.6515 53.9997 24.6515H53.9997C53.9997 24.6515 53.9997 24.6515 53.9997 24.6515H53.9997C53.9997 24.6515 53.9997 24.6515 53.9997 24.6515H53.9997C53.9997 24.6515 53.9997 24.6515 53.9997 24.6515H53.9997C53.9997 24.6515 53.9997 24.6515 53.9997 24.6515C53.9997 24.6515 53.9997 24.6515 53.9997 24.6515C53.9997 24.6515 53.9997 24.6515 53.9997 24.6515C53.9997 24.6515 53.9997 24.6515 53.9997 24.6515V21.6515ZM52.4997 19.1646V23.1515H55.4997V19.1646H52.4997Z" fill="#192A36"/>
<path d="M22.1673 38.943C21.8106 38.943 21.5178 38.8898 21.2888 38.7833C21.0599 38.6768 20.8922 38.5091 20.7857 38.2802C20.6792 38.0512 20.626 37.7584 20.626 37.4017V33.0093H22.1753V37.1381C22.1753 37.2286 22.1886 37.3058 22.2152 37.3697C22.2472 37.4336 22.2951 37.4815 22.359 37.5135C22.4229 37.5401 22.5001 37.5534 22.5906 37.5534H24.3156V38.943H22.1673Z" fill="#192A36"/>
<path d="M24.9154 38.943V33.0093H26.4647V38.943H24.9154Z" fill="#192A36"/>
<path d="M27.1812 38.943L27.884 33.0093H29.3375L30.5593 37.1781L31.7812 33.0093H33.2187L33.9295 38.943H32.4361L31.9809 35.1256L32.2045 35.1336L31.2701 38.943H29.8166L28.8743 35.1336L29.1218 35.1256L28.6746 38.943H27.1812Z" fill="#192A36"/>
<path d="M34.6486 38.943V33.0093H36.1979V38.943H34.6486Z" fill="#192A36"/>
<path d="M38.256 38.943V34.3989H36.7626V33.0093H41.2987V34.3989H39.8053V38.943H38.256Z" fill="#192A36"/>
<path d="M43.3499 38.9909C43.2222 38.9909 43.0678 38.9776 42.8867 38.951C42.7111 38.9244 42.538 38.8658 42.3676 38.7753C42.2026 38.6848 42.0642 38.5464 41.9524 38.36C41.8406 38.1683 41.7847 37.9075 41.7847 37.5774V34.4787C41.7847 34.1912 41.8299 33.9516 41.9204 33.76C42.0109 33.5683 42.1281 33.4192 42.2718 33.3128C42.4156 33.2009 42.5753 33.1237 42.751 33.0812C42.9267 33.0332 43.0971 33.0093 43.2621 33.0093C43.7093 33.0093 44.0927 33.0173 44.4121 33.0332C44.7369 33.0439 45.0164 33.0572 45.2507 33.0732C45.4902 33.0891 45.7005 33.1078 45.8816 33.1291V34.4388H43.7413C43.6082 34.4388 43.507 34.4681 43.4378 34.5267C43.3686 34.5852 43.334 34.6731 43.334 34.7902V35.2853L45.4823 35.3652V36.5951L43.334 36.6749V37.1222C43.334 37.218 43.3473 37.2979 43.3739 37.3617C43.4058 37.4203 43.4484 37.4656 43.5017 37.4975C43.5549 37.5241 43.6135 37.5374 43.6774 37.5374H45.8816V38.8472C45.6526 38.8791 45.3917 38.9057 45.0989 38.927C44.8061 38.9483 44.5079 38.9643 44.2045 38.9749C43.901 38.9856 43.6162 38.9909 43.3499 38.9909Z" fill="#192A36"/>
<path d="M46.6044 38.943V33.0093H49.2239C49.6552 33.0093 50.0092 33.0865 50.2861 33.2409C50.5629 33.39 50.7812 33.6003 50.9409 33.8718C51.1007 34.1433 51.2125 34.4601 51.2764 34.8221C51.3402 35.1789 51.3722 35.5649 51.3722 35.9801C51.3722 36.6776 51.2923 37.2446 51.1326 37.6812C50.9782 38.1124 50.7413 38.4319 50.4218 38.6395C50.1077 38.8418 49.7084 38.943 49.2239 38.943H46.6044ZM48.1538 37.5534H49.0642C49.2612 37.5534 49.4129 37.5002 49.5194 37.3937C49.6312 37.2872 49.7084 37.1195 49.751 36.8906C49.7989 36.6563 49.8229 36.3528 49.8229 35.9801C49.8229 35.6287 49.8042 35.3492 49.767 35.1416C49.735 34.9286 49.6844 34.7689 49.6152 34.6624C49.5513 34.5559 49.4715 34.4867 49.3756 34.4548C49.2851 34.4175 49.1813 34.3989 49.0642 34.3989H48.1538V37.5534Z" fill="#192A36"/>
</svg>
