<svg width="72" height="72" viewBox="0 0 72 72" fill="none" xmlns="http://www.w3.org/2000/svg">
<rect width="72" height="72" rx="10" fill="#F5F6F7"/>
<path d="M45.75 33.9165V35.5671H48.75V33.9165H45.75ZM26.25 35.5671V33.9165H23.25V35.5671H26.25ZM34.5 46.8171V53.0832H37.5V46.8171H34.5ZM36 51.5832H29.1356V54.5832H36V51.5832ZM36 54.5832H42.6737V51.5832H36V54.5832ZM23.25 35.5671C23.25 42.6088 28.9584 48.3171 36 48.3171V45.3171C30.6152 45.3171 26.25 40.9519 26.25 35.5671H23.25ZM45.75 35.5671C45.75 40.9519 41.3848 45.3171 36 45.3171V48.3171C43.0416 48.3171 48.75 42.6088 48.75 35.5671H45.75Z" fill="#192A36"/>
<rect x="29.333" y="18.9165" width="13.3333" height="23.3333" rx="6.66667" fill="#192A36" stroke="#192A36" stroke-width="3"/>
<path d="M27.8281 26.4331H33.6703M27.8281 31.6589H33.6703" stroke="#15D36E" stroke-width="3" stroke-linejoin="round"/>
<path d="M38.3164 26.4331H44.1237M38.3164 31.6589H44.1237" stroke="#15D36E" stroke-width="3" stroke-linejoin="round"/>
</svg>
