<svg width="60" height="60" viewBox="0 0 60 60" fill="none" xmlns="http://www.w3.org/2000/svg">
<rect width="60" height="60" rx="8.33333" fill="#F5F6F7"/>
<path d="M24.1667 15.8334H25C28.2217 15.8334 30.8334 18.445 30.8334 21.6667H24.1667V15.8334Z" fill="#15D36E"/>
<path d="M37.5 15.8334H36.6667C33.445 15.8334 30.8333 18.445 30.8333 21.6667H37.5V15.8334Z" fill="#15D36E"/>
<rect x="28.3333" y="21.6667" width="5" height="20.8333" fill="#15D36E"/>
<rect width="8.33333" height="14.1667" transform="matrix(-1 0 0 1 41.6667 28.3334)" fill="#F5F6F7"/>
<rect width="8.33333" height="14.1667" transform="matrix(-1 0 0 1 28.3333 28.3334)" fill="#F5F6F7"/>
<rect x="44.1667" y="28.3334" width="10.8333" height="5.83333" transform="rotate(-180 44.1667 28.3334)" fill="#F5F6F7"/>
<rect x="27.5" y="28.3334" width="10.8333" height="5.83333" transform="rotate(-180 27.5 28.3334)" fill="#F5F6F7"/>
<path d="M20 28.3334V27.0834H18.75V28.3334H20ZM41.6667 28.3334H42.9167V27.0834H41.6667V28.3334ZM41.6667 42.5V43.75H42.9167V42.5H41.6667ZM20 42.5H18.75V43.75H20V42.5ZM28.3333 21.6667V20.4167H27.0833V21.6667H28.3333ZM33.3333 21.6667H34.5833V20.4167H33.3333V21.6667ZM33.3333 42.5V43.75H34.5833V42.5H33.3333ZM28.3333 42.5H27.0833V43.75H28.3333V42.5ZM17.5 21.6667V20.4167H16.25V21.6667H17.5ZM44.1667 21.6667H45.4167V20.4167H44.1667V21.6667ZM44.1667 28.3334V29.5834H45.4167V28.3334H44.1667ZM17.5 28.3334H16.25V29.5834H17.5V28.3334ZM24.1667 15.8334V14.5834H22.9167V15.8334H24.1667ZM24.1667 21.6667H22.9167V22.9167H24.1667V21.6667ZM37.5 15.8334H38.75V14.5834H37.5V15.8334ZM37.5 21.6667V22.9167H38.75V21.6667H37.5ZM20 29.5834H41.6667V27.0834H20V29.5834ZM40.4167 28.3334V42.5H42.9167V28.3334H40.4167ZM41.6667 41.25H20V43.75H41.6667V41.25ZM21.25 42.5V28.3334H18.75V42.5H21.25ZM28.3333 22.9167H33.3333V20.4167H28.3333V22.9167ZM32.0833 21.6667V42.5H34.5833V21.6667H32.0833ZM33.3333 41.25H28.3333V43.75H33.3333V41.25ZM29.5833 42.5V21.6667H27.0833V42.5H29.5833ZM17.5 22.9167H44.1667V20.4167H17.5V22.9167ZM42.9167 21.6667V28.3334H45.4167V21.6667H42.9167ZM44.1667 27.0834H17.5V29.5834H44.1667V27.0834ZM18.75 28.3334V21.6667H16.25V28.3334H18.75ZM24.1667 17.0834H25V14.5834H24.1667V17.0834ZM30.8333 20.4167H24.1667V22.9167H30.8333V20.4167ZM25.4167 21.6667V15.8334H22.9167V21.6667H25.4167ZM25 17.0834C27.5313 17.0834 29.5833 19.1354 29.5833 21.6667H32.0833C32.0833 17.7547 28.912 14.5834 25 14.5834V17.0834ZM37.5 14.5834H36.6667V17.0834H37.5V14.5834ZM30.8333 22.9167H37.5V20.4167H30.8333V22.9167ZM38.75 21.6667V15.8334H36.25V21.6667H38.75ZM36.6667 14.5834C32.7546 14.5834 29.5833 17.7547 29.5833 21.6667H32.0833C32.0833 19.1354 34.1354 17.0834 36.6667 17.0834V14.5834Z" fill="#192A36"/>
</svg>
